Coordinates
version=1
nRows=37
nColumns=38
inDegrees=no

Units are S.I. units (second, meters, Newtons, ...)
If the header above contains a line with 'inDegrees', this indicates whether rotational values are in degrees (yes) or radians (no).

endheader
time	pelvis_tilt	pelvis_list	pelvis_rotation	pelvis_tx	pelvis_ty	pelvis_tz	hip_flexion_r	hip_adduction_r	hip_rotation_r	knee_angle_r	ankle_angle_r	subtalar_angle_r	mtp_angle_r	hip_flexion_l	hip_adduction_l	hip_rotation_l	knee_angle_l	ankle_angle_l	subtalar_angle_l	mtp_angle_l	lumbar_extension	lumbar_bending	lumbar_rotation	arm_flex_r	arm_add_r	arm_rot_r	elbow_flex_r	pro_sup_r	wrist_flex_r	wrist_dev_r	arm_flex_l	arm_add_l	arm_rot_l	elbow_flex_l	pro_sup_l	wrist_flex_l	wrist_dev_l
2.49	-1.06906	1.53355	-0.400213	0.732838	-0.320741	0.910104	0.388225	-0.0488362	-0.352196	0.434933	0.0453925	0	0	-0.135404	-0.16101	-0.22655	0.760042	0.0111913	0	0	-0.0430073	0.121071	-0.0487643	-0.217027	-0.306213	0.173749	0.651176	1.38902	0	0	0.00782773	-0.296264	0.574471	0.554063	0.830043	0	0
2.5	-1.29718	1.53005	-0.176683	0.7305	-0.332144	0.910052	0.383141	-0.0356677	-0.349404	0.433779	0.0530686	0	0	-0.0955363	-0.177878	-0.217353	0.82374	-0.0442161	0	0	-0.0320011	0.128388	-0.0410886	-0.223969	-0.313036	0.18467	0.658006	1.3708	0	0	-7.68292e-05	-0.294722	0.588685	0.552714	0.81781	0	0
2.51	-1.40877	1.5258	-0.0694361	0.72826	-0.343268	0.910367	0.374255	-0.0232793	-0.345362	0.43122	0.0605536	0	0	-0.0587219	-0.192047	-0.206111	0.883546	-0.101937	0	0	-0.0253737	0.134281	-0.0334427	-0.229225	-0.319747	0.193891	0.665274	1.35859	0	0	-0.00660857	-0.293392	0.60181	0.551784	0.808467	0	0
2.52	-1.42227	1.52252	-0.0605845	0.72613	-0.354066	0.911151	0.362027	-0.0123928	-0.338795	0.429068	0.0677304	0	0	-0.0259024	-0.202609	-0.193548	0.939376	-0.159662	0	0	-0.0240878	0.138396	-0.025249	-0.232338	-0.325974	0.200124	0.672027	1.35378	0	0	-0.0116171	-0.291788	0.612662	0.550941	0.803018	0	0
2.53	-1.38834	1.52014	-0.0981339	0.724226	-0.364712	0.912271	0.347962	-0.00344931	-0.331405	0.428171	0.0752388	0	0	0.00451761	-0.210456	-0.17988	0.991805	-0.213325	0	0	-0.0255936	0.141162	-0.0176861	-0.234585	-0.331806	0.206198	0.678339	1.34773	0	0	-0.0154321	-0.2902	0.624019	0.550053	0.797296	0	0
2.54	-1.30398	1.51805	-0.185126	0.72247	-0.375337	0.91376	0.330804	0.00393705	-0.324239	0.427676	0.0829758	0	0	0.0306859	-0.216174	-0.166858	1.03924	-0.257923	0	0	-0.0301808	0.142742	-0.0110895	-0.235455	-0.336395	0.210288	0.682737	1.3425	0	0	-0.0188569	-0.288379	0.63262	0.54902	0.793491	0	0
2.55	-1.20046	1.51598	-0.291146	0.720855	-0.38582	0.915465	0.311803	0.0100601	-0.316907	0.426607	0.0906871	0	0	0.0533743	-0.219834	-0.155922	1.08067	-0.285853	0	0	-0.0364323	0.143341	-0.00458193	-0.235458	-0.340947	0.213842	0.68716	1.33782	0	0	-0.0215804	-0.286444	0.64114	0.547758	0.790165	0	0
2.56	-1.08586	1.51434	-0.408507	0.71935	-0.396018	0.917326	0.291844	0.0142458	-0.309997	0.424705	0.0979565	0	0	0.0733416	-0.220741	-0.14601	1.11634	-0.291158	0	0	-0.0439834	0.142367	0.00215797	-0.234087	-0.345686	0.217837	0.69133	1.33413	0	0	-0.0234597	-0.284594	0.64951	0.546691	0.78762	0	0
2.57	-0.968674	1.51343	-0.528821	0.717867	-0.406007	0.91927	0.271719	0.0162615	-0.304676	0.42176	0.10505	0	0	0.0926969	-0.219296	-0.136739	1.14943	-0.273537	0	0	-0.0516724	0.139487	0.00886738	-0.231105	-0.349775	0.221705	0.693503	1.3327	0	0	-0.0250955	-0.282848	0.656807	0.545901	0.784615	0	0
2.58	-0.859202	1.51334	-0.641085	0.716354	-0.415982	0.921236	0.251662	0.0167915	-0.300986	0.416817	0.11194	0	0	0.113743	-0.216388	-0.128548	1.18235	-0.236206	0	0	-0.0577461	0.134847	0.0146205	-0.227064	-0.351623	0.222155	0.692384	1.33578	0	0	-0.0273151	-0.281078	0.661183	0.544776	0.784107	0	0
2.59	-0.73502	1.51348	-0.768081	0.714869	-0.425748	0.923306	0.230722	0.0159522	-0.297095	0.409831	0.117361	0	0	0.134494	-0.211428	-0.121875	1.21135	-0.194858	0	0	-0.0641725	0.128561	0.0199351	-0.222086	-0.352437	0.220686	0.690723	1.33975	0	0	-0.0293546	-0.279546	0.664245	0.544163	0.784533	0	0
2.6	-0.608766	1.51373	-0.896299	0.713501	-0.435442	0.925397	0.209482	0.0140119	-0.294862	0.400831	0.121681	0	0	0.154686	-0.205002	-0.11573	1.23292	-0.16141	0	0	-0.0695279	0.121234	0.0241853	-0.217085	-0.35242	0.217767	0.688842	1.34362	0	0	-0.031455	-0.278333	0.666685	0.544031	0.784761	0	0
2.61	-0.487678	1.51415	-1.01949	0.712163	-0.444985	0.927409	0.189338	0.0115754	-0.293286	0.39129	0.125305	0	0	0.174568	-0.198171	-0.111258	1.24721	-0.138472	0	0	-0.073652	0.113398	0.0282414	-0.212263	-0.352567	0.214859	0.688351	1.34565	0	0	-0.0336968	-0.277315	0.668117	0.544607	0.785421	0	0
2.62	-0.367872	1.51473	-1.14176	0.710854	-0.454357	0.929328	0.170254	0.00874545	-0.291379	0.381209	0.128398	0	0	0.19433	-0.190856	-0.108414	1.25526	-0.124503	0	0	-0.0768264	0.105204	0.0327041	-0.208171	-0.352291	0.209874	0.689288	1.34696	0	0	-0.0356857	-0.276464	0.669259	0.546008	0.786193	0	0
2.63	-0.242381	1.51551	-1.27034	0.709579	-0.463585	0.931134	0.152465	0.00510641	-0.289442	0.371173	0.131262	0	0	0.213867	-0.182702	-0.107397	1.25762	-0.115914	0	0	-0.0790132	0.0964938	0.0379246	-0.20499	-0.351921	0.202913	0.692135	1.34838	0	0	-0.0374251	-0.275714	0.670328	0.548208	0.787025	0	0
2.64	-0.119409	1.51653	-1.39609	0.708396	-0.472844	0.932774	0.135517	0.0012358	-0.288698	0.360459	0.134246	0	0	0.233289	-0.174497	-0.107526	1.25465	-0.108716	0	0	-0.0794473	0.0878503	0.0429791	-0.203104	-0.351459	0.194459	0.69677	1.35039	0	0	-0.0395434	-0.275256	0.671276	0.551359	0.787649	0	0
2.65	0.00479745	1.51767	-1.5243	0.707233	-0.481958	0.934258	0.119806	-0.00267785	-0.286162	0.349693	0.136954	0	0	0.252142	-0.16668	-0.110099	1.24673	-0.101683	0	0	-0.0791296	0.0794436	0.0492405	-0.202037	-0.351342	0.185124	0.703556	1.352	0	0	-0.0417903	-0.274585	0.670786	0.555628	0.788072	0	0
2.66	0.134188	1.51831	-1.6589	0.706071	-0.490996	0.935627	0.104887	-0.00703037	-0.283163	0.339256	0.139986	0	0	0.269681	-0.159333	-0.11545	1.23395	-0.0930017	0	0	-0.0785088	0.0711067	0.0569109	-0.201881	-0.351563	0.175535	0.712373	1.35221	0	0	-0.0438653	-0.273575	0.668428	0.560508	0.788067	0	0
2.67	0.26091	1.51831	-1.79141	0.704932	-0.499975	0.936869	0.0905165	-0.0115409	-0.280567	0.32916	0.143142	0	0	0.286161	-0.152835	-0.123209	1.21723	-0.0808086	0	0	-0.0777758	0.0631548	0.0651473	-0.202156	-0.352304	0.166826	0.722368	1.35054	0	0	-0.0458353	-0.272432	0.664104	0.566175	0.78737	0	0
2.68	0.377086	1.51785	-1.91294	0.703871	-0.508987	0.937957	0.0760225	-0.0155206	-0.278481	0.318285	0.14594	0	0	0.301856	-0.147424	-0.132545	1.19719	-0.0646218	0	0	-0.0764576	0.0557924	0.0724459	-0.202346	-0.353301	0.159538	0.732729	1.34651	0	0	-0.0483965	-0.271471	0.659607	0.572147	0.787228	0	0
2.69	0.473465	1.51624	-2.01497	0.702808	-0.517898	0.938978	0.0610741	-0.0188696	-0.275216	0.307717	0.148243	0	0	0.31566	-0.143335	-0.144087	1.17386	-0.0462318	0	0	-0.0762605	0.0490154	0.0796155	-0.201764	-0.354833	0.153596	0.743727	1.34117	0	0	-0.0511194	-0.270426	0.654958	0.578064	0.790297	0	0
2.7	0.549899	1.51435	-2.0966	0.701775	-0.526827	0.939877	0.045604	-0.0213724	-0.271682	0.296786	0.15053	0	0	0.327877	-0.140586	-0.157166	1.14675	-0.0294314	0	0	-0.0763122	0.0429525	0.0860649	-0.200738	-0.356623	0.148628	0.754639	1.3362	0	0	-0.0538959	-0.26939	0.648292	0.584054	0.794872	0	0
2.71	0.612912	1.51112	-2.16616	0.700729	-0.535682	0.940727	0.0295042	-0.0243743	-0.266411	0.28669	0.153493	0	0	0.336758	-0.138204	-0.173377	1.11534	-0.014724	0	0	-0.0778117	0.0367248	0.0936887	-0.199228	-0.358621	0.143965	0.765631	1.33041	0	0	-0.0559622	-0.268201	0.641246	0.589968	0.799141	0	0
2.72	0.66009	1.50745	-2.21953	0.699739	-0.544456	0.941424	0.0130389	-0.0272953	-0.262259	0.276496	0.157089	0	0	0.343683	-0.136343	-0.190964	1.08038	-0.00262814	0	0	-0.0801468	0.0307252	0.100928	-0.197304	-0.360524	0.140262	0.775852	1.32345	0	0	-0.0573129	-0.267301	0.634656	0.595892	0.802487	0	0
2.73	0.689791	1.50349	-2.2539	0.698925	-0.553285	0.941988	-0.00478916	-0.0296636	-0.258737	0.265464	0.160605	0	0	0.348588	-0.134453	-0.2086	1.04192	0.00739374	0	0	-0.0831519	0.0252355	0.106131	-0.194582	-0.362875	0.138969	0.785343	1.31684	0	0	-0.0586803	-0.266646	0.627878	0.601829	0.805524	0	0
2.74	0.704988	1.49883	-2.27286	0.698186	-0.562102	0.942477	-0.0246417	-0.0315632	-0.25506	0.25279	0.163714	0	0	0.350553	-0.132169	-0.226923	0.999271	0.0160699	0	0	-0.0874752	0.0197399	0.109883	-0.190943	-0.365219	0.138621	0.794713	1.31127	0	0	-0.0598836	-0.266206	0.620321	0.607838	0.808694	0	0
2.75	0.712141	1.49432	-2.28369	0.697526	-0.570679	0.94279	-0.0440642	-0.033152	-0.251559	0.241091	0.167006	0	0	0.351113	-0.129631	-0.245626	0.953351	0.0245011	0	0	-0.0926855	0.0146848	0.113423	-0.186426	-0.36738	0.137637	0.803833	1.30742	0	0	-0.0597542	-0.265646	0.613911	0.612836	0.811453	0	0
2.76	0.718239	1.48979	-2.29327	0.69696	-0.579168	0.942936	-0.0634943	-0.0348852	-0.247826	0.229265	0.170772	0	0	0.349996	-0.126255	-0.265001	0.903406	0.0328147	0	0	-0.0982098	0.00954419	0.116602	-0.181546	-0.369342	0.13693	0.812715	1.30402	0	0	-0.0588188	-0.265187	0.608562	0.617043	0.814066	0	0
2.77	0.72217	1.48598	-2.29928	0.696613	-0.587581	0.942848	-0.0827939	-0.0360204	-0.244911	0.216898	0.174445	0	0	0.348315	-0.122025	-0.283331	0.850025	0.0408429	0	0	-0.103519	0.00512883	0.118254	-0.176504	-0.371129	0.136125	0.821376	1.301	0	0	-0.0574042	-0.264781	0.60384	0.620961	0.816455	0	0
2.78	0.724709	1.48287	-2.30345	0.696367	-0.595985	0.942507	-0.101525	-0.0368223	-0.242219	0.204702	0.178498	0	0	0.345747	-0.117399	-0.302103	0.793209	0.0484343	0	0	-0.108389	0.00131188	0.119278	-0.171463	-0.3725	0.134994	0.829567	1.29851	0	0	-0.0556904	-0.26455	0.599851	0.624481	0.819156	0	0
2.79	0.730708	1.4811	-2.31181	0.696147	-0.604242	0.941811	-0.117553	-0.0374981	-0.239018	0.194846	0.183596	0	0	0.343567	-0.112924	-0.321932	0.733939	0.0554368	0	0	-0.112113	-0.00187172	0.12078	-0.165918	-0.374144	0.135385	0.836889	1.29623	0	0	-0.0534342	-0.264275	0.597053	0.627264	0.821907	0	0
2.8	0.739803	1.47977	-2.32277	0.696123	-0.612546	0.94091	-0.132916	-0.0383947	-0.236416	0.185629	0.189214	0	0	0.340135	-0.106894	-0.341685	0.67013	0.0598142	0	0	-0.115222	-0.004805	0.121837	-0.160723	-0.375709	0.135163	0.844174	1.29589	0	0	-0.0509883	-0.263684	0.594413	0.629144	0.825614	0	0
2.81	0.754227	1.47955	-2.33744	0.696393	-0.621005	0.939736	-0.147466	-0.0389157	-0.236143	0.176385	0.195276	0	0	0.336948	-0.0994666	-0.36056	0.603259	0.0626578	0	0	-0.116735	-0.00710683	0.12142	-0.1562	-0.376659	0.133309	0.850845	1.29937	0	0	-0.0487425	-0.262851	0.592129	0.629713	0.829955	0	0
2.82	0.775098	1.48043	-2.35816	0.696892	-0.629421	0.938285	-0.160037	-0.0395213	-0.237158	0.168668	0.202016	0	0	0.33429	-0.0907394	-0.378548	0.533888	0.065252	0	0	-0.11703	-0.00878822	0.120705	-0.152151	-0.377231	0.130483	0.856828	1.30383	0	0	-0.0461215	-0.261733	0.590717	0.629423	0.834422	0	0
2.83	0.799445	1.4818	-2.38193	0.697579	-0.637828	0.936655	-0.171312	-0.040394	-0.239469	0.162539	0.209339	0	0	0.331323	-0.0802158	-0.393851	0.462007	0.0671896	0	0	-0.116836	-0.0101222	0.119149	-0.147646	-0.377625	0.128089	0.861702	1.30838	0	0	-0.0435774	-0.260366	0.588844	0.628508	0.840462	0	0
2.84	0.828507	1.48249	-2.40959	0.698479	-0.646223	0.934958	-0.182335	-0.042407	-0.243304	0.157676	0.217618	0	0	0.325683	-0.0654587	-0.401099	0.383777	0.0650505	0	0	-0.116986	-0.0121172	0.116343	-0.142477	-0.377606	0.126049	0.865162	1.3139	0	0	-0.0409328	-0.258837	0.586103	0.626574	0.850137	0	0
2.85	0.865439	1.4855	-2.4434	0.699638	-0.65444	0.932905	-0.190262	-0.0429108	-0.248885	0.154772	0.226598	0	0	0.322101	-0.0501756	-0.397496	0.305098	0.0622152	0	0	-0.115289	-0.0124427	0.112084	-0.136923	-0.37794	0.124962	0.867513	1.32024	0	0	-0.0377884	-0.257236	0.583973	0.623635	0.862056	0	0
